<?xml version="1.0" standalone="no"?>
<!DOCTYPE svg PUBLIC "-//W3C//DTD SVG 20010904//EN"
 "http://www.w3.org/TR/2001/REC-SVG-20010904/DTD/svg10.dtd">
<svg version="1.0" xmlns="http://www.w3.org/2000/svg"
 width="512.000000pt" height="512.000000pt" viewBox="0 0 512.000000 512.000000"
 preserveAspectRatio="xMidYMid meet">
<metadata>
Created by potrace 1.14, written by Peter Selinger 2001-2017
</metadata>
<g transform="translate(0.000000,512.000000) scale(0.100000,-0.100000)"
fill="#000000" stroke="none">
<path d="M1894 3447 c-26 -23 -38 -45 -45 -77 -4 -25 -8 -291 -9 -592 l0 -547
-589 -3 c-578 -3 -590 -3 -617 -24 -15 -11 -37 -33 -48 -48 -21 -27 -21 -39
-24 -701 l-3 -674 -214 -3 -213 -3 -44 -30 c-25 -18 -52 -49 -65 -75 -22 -43
-23 -53 -23 -331 0 -267 1 -288 19 -310 l19 -24 2522 0 2522 0 19 24 c18 22
19 43 19 310 0 278 -1 288 -22 331 -14 26 -41 57 -66 75 l-44 30 -214 3 -214
3 -2 957 c-3 899 -4 959 -21 990 -10 18 -32 42 -50 52 -31 19 -54 20 -619 20
l-588 0 0 263 c-1 310 -5 339 -54 384 l-36 33 -630 0 -630 0 -36 -33z m1226
-1333 l0 -1215 -237 3 c-217 3 -242 5 -284 24 -66 31 -114 78 -146 142 l-28
57 -3 1103 -2 1102 350 0 350 0 0 -1216z m1280 -398 l0 -933 -253 -5 c-139 -3
-391 -3 -560 0 l-307 5 0 933 0 934 560 0 560 0 0 -934z m-2560 -286 l0 -650
-560 0 -560 0 0 650 0 650 560 0 560 0 0 -650z m3114 -816 c14 -13 16 -49 16
-240 l0 -224 -2410 0 -2410 0 0 224 c0 191 2 227 16 240 14 14 245 16 2394 16
2149 0 2380 -2 2394 -16z"/>
</g>
</svg>
